<mxfile host="app.diagrams.net" modified="2021-02-09T03:34:51.297Z" agent="5.0 (Windows NT 10.0; Win64; x64) AppleWebKit/537.36 (KHTML, like Gecko) Chrome/88.0.4324.96 Safari/537.36 Edg/88.0.705.50" etag="hwZSY4OZ6t1L69CQ267C" version="14.2.9" type="github" pages="2">
  <diagram id="JWxSK_kzal0BuBXJZhWS" name="Page-1">
    <mxGraphModel dx="474" dy="265" grid="1" gridSize="10" guides="1" tooltips="1" connect="1" arrows="1" fold="1" page="1" pageScale="1" pageWidth="291" pageHeight="413" math="0" shadow="0">
      <root>
        <mxCell id="0" />
        <mxCell id="1" parent="0" />
        <mxCell id="Q-pdSaAUq_vIxulb3Aun-2" value="S0ï¼šNeil&amp;nbsp;" style="rounded=0;whiteSpace=wrap;html=1;shadow=0;glass=0;sketch=0;perimeterSpacing=0;imageWidth=24;" vertex="1" parent="1">
          <mxGeometry x="80" y="190" width="120" height="60" as="geometry" />
        </mxCell>
      </root>
    </mxGraphModel>
  </diagram>
  <diagram id="OqNDwDOLBrbcp9qY8u8_" name="Page-2">
    <mxGraphModel dx="1422" dy="794" grid="1" gridSize="10" guides="1" tooltips="1" connect="1" arrows="1" fold="1" page="1" pageScale="1" pageWidth="291" pageHeight="413" math="0" shadow="0">
      <root>
        <mxCell id="eIFoJpTlD0VH7HLp5S4X-0" />
        <mxCell id="eIFoJpTlD0VH7HLp5S4X-1" parent="eIFoJpTlD0VH7HLp5S4X-0" />
      </root>
    </mxGraphModel>
  </diagram>
</mxfile>
